<?xml version="1.0" encoding="utf-8"?>
<!-- Generator: Adobe Illustrator 28.3.0, SVG Export Plug-In . SVG Version: 6.00 Build 0)  -->
<svg version="1.1" id="レイヤー_1" xmlns="http://www.w3.org/2000/svg" xmlns:xlink="http://www.w3.org/1999/xlink" x="0px"
	 y="0px" viewBox="0 0 595.28 841.89" style="enable-background:new 0 0 595.28 841.89;" xml:space="preserve">
<style type="text/css">
	.st0{fill:url(#SVGID_1_);stroke:url(#SVGID_00000118375521351853250420000014993342716267138490_);stroke-miterlimit:10;}
	.st1{fill:#D6D9ED;stroke:url(#SVGID_00000147930609951721005640000013737607676412169094_);stroke-miterlimit:10;}
	.st2{opacity:0.9;fill:#D6D9ED;stroke:url(#SVGID_00000048499213101859587140000012580976070331643295_);stroke-miterlimit:10;}
	.st3{opacity:0.8;fill:#D6D9ED;stroke:url(#SVGID_00000113332877362531780820000003301088570941538715_);stroke-miterlimit:10;}
	.st4{opacity:0.68;fill:#D6D9ED;stroke:url(#SVGID_00000006685349504832547300000002138532730068010163_);stroke-miterlimit:10;}
	.st5{opacity:0.6;fill:#D6D9ED;stroke:url(#SVGID_00000048493187973323199570000012189790246563393716_);stroke-miterlimit:10;}
	.st6{opacity:0.48;fill:#D6D9ED;stroke:url(#SVGID_00000114753242301508259720000009241960377610357392_);stroke-miterlimit:10;}
	.st7{opacity:0.4;fill:#D6D9ED;stroke:url(#SVGID_00000054985467725109477810000005337079769956925574_);stroke-miterlimit:10;}
</style>
<linearGradient id="SVGID_1_" gradientUnits="userSpaceOnUse" x1="-61.6536" y1="780.2363" x2="656.9291" y2="61.6536">
	<stop  offset="0" style="stop-color:#FFFFFF"/>
	<stop  offset="0.2532" style="stop-color:#0C3764"/>
	<stop  offset="0.5863" style="stop-color:#1D60AD"/>
</linearGradient>
<linearGradient id="SVGID_00000150782067884326601110000006454271639889351089_" gradientUnits="userSpaceOnUse" x1="-0.5" y1="420.9449" x2="595.7756" y2="420.9449">
	<stop  offset="0" style="stop-color:#FFFFFF"/>
	<stop  offset="0.303" style="stop-color:#001214"/>
	<stop  offset="0.7286" style="stop-color:#1D60AD"/>
</linearGradient>
<rect x="0" style="fill:url(#SVGID_1_);stroke:url(#SVGID_00000150782067884326601110000006454271639889351089_);stroke-miterlimit:10;" width="595.28" height="841.89"/>
<linearGradient id="SVGID_00000081616390891070890970000016694526566187234693_" gradientUnits="userSpaceOnUse" x1="32.5447" y1="53.8602" x2="106.0032" y2="53.8602">
	<stop  offset="0" style="stop-color:#FFFFFF"/>
	<stop  offset="0.303" style="stop-color:#001214"/>
	<stop  offset="0.7286" style="stop-color:#1D60AD"/>
</linearGradient>
<polygon style="fill:#D6D9ED;stroke:url(#SVGID_00000081616390891070890970000016694526566187234693_);stroke-miterlimit:10;" points="
	94.27,84.92 71.29,70.8 50.76,88.29 57.09,62.08 34.12,47.96 61,45.88 67.33,19.66 77.62,44.59 104.51,42.51 83.98,60 "/>
<linearGradient id="SVGID_00000055664780354175932310000000337993326665251767_" gradientUnits="userSpaceOnUse" x1="155.7758" y1="114.4553" x2="229.2344" y2="114.4553" gradientTransform="matrix(0.8619 0.5071 -0.5071 0.8619 39.6051 -71.4104)">
	<stop  offset="0" style="stop-color:#FFFFFF"/>
	<stop  offset="0.303" style="stop-color:#001214"/>
	<stop  offset="0.7286" style="stop-color:#1D60AD"/>
</linearGradient>
<polygon style="opacity:0.9;fill:#D6D9ED;stroke:url(#SVGID_00000055664780354175932310000000337993326665251767_);stroke-miterlimit:10;" points="
	153.28,164.3 140.63,140.48 114.07,145.14 132.82,125.76 120.18,101.94 144.41,113.78 163.16,94.4 159.38,121.1 183.61,132.94 
	157.05,137.6 "/>
<linearGradient id="SVGID_00000024695012266936943210000001826981027209815231_" gradientUnits="userSpaceOnUse" x1="185.8238" y1="56.5522" x2="259.2824" y2="56.5522">
	<stop  offset="0" style="stop-color:#FFFFFF"/>
	<stop  offset="0.303" style="stop-color:#001214"/>
	<stop  offset="0.7286" style="stop-color:#1D60AD"/>
</linearGradient>
<polygon style="opacity:0.8;fill:#D6D9ED;stroke:url(#SVGID_00000024695012266936943210000001826981027209815231_);stroke-miterlimit:10;" points="
	247.55,87.62 224.57,73.5 204.04,90.98 210.37,64.77 187.4,50.65 214.28,48.57 220.61,22.36 230.9,47.28 257.79,45.2 237.26,62.69 
	"/>
<linearGradient id="SVGID_00000088100093600075374850000015479666313805118602_" gradientUnits="userSpaceOnUse" x1="244.9603" y1="127.6261" x2="318.4188" y2="127.6261">
	<stop  offset="0" style="stop-color:#FFFFFF"/>
	<stop  offset="0.303" style="stop-color:#001214"/>
	<stop  offset="0.7286" style="stop-color:#1D60AD"/>
</linearGradient>
<polygon style="opacity:0.68;fill:#D6D9ED;stroke:url(#SVGID_00000088100093600075374850000015479666313805118602_);stroke-miterlimit:10;" points="
	306.68,158.69 283.71,144.57 263.18,162.06 269.51,135.84 246.53,121.72 273.42,119.64 279.75,93.43 290.04,118.36 316.92,116.28 
	296.39,133.76 "/>
<linearGradient id="SVGID_00000080174366145331069310000004483476855090479761_" gradientUnits="userSpaceOnUse" x1="325.7402" y1="89.7693" x2="399.1988" y2="89.7693">
	<stop  offset="0" style="stop-color:#FFFFFF"/>
	<stop  offset="0.303" style="stop-color:#001214"/>
	<stop  offset="0.7286" style="stop-color:#1D60AD"/>
</linearGradient>
<polygon style="opacity:0.6;fill:#D6D9ED;stroke:url(#SVGID_00000080174366145331069310000004483476855090479761_);stroke-miterlimit:10;" points="
	387.46,120.83 364.49,106.71 343.96,124.2 350.29,97.99 327.31,83.87 354.2,81.79 360.53,55.57 370.82,80.5 397.7,78.42 
	377.17,95.91 "/>
<linearGradient id="SVGID_00000024680034360502462120000001074921884862900910_" gradientUnits="userSpaceOnUse" x1="380.072" y1="163.2937" x2="453.5306" y2="163.2937">
	<stop  offset="0" style="stop-color:#FFFFFF"/>
	<stop  offset="0.303" style="stop-color:#001214"/>
	<stop  offset="0.7286" style="stop-color:#1D60AD"/>
</linearGradient>
<polygon style="opacity:0.48;fill:#D6D9ED;stroke:url(#SVGID_00000024680034360502462120000001074921884862900910_);stroke-miterlimit:10;" points="
	441.79,194.36 418.82,180.24 398.29,197.73 404.62,171.51 381.64,157.39 408.53,155.31 414.86,129.1 425.15,154.02 452.03,151.94 
	431.51,169.43 "/>
<linearGradient id="SVGID_00000057860059995426299800000009581786125369470909_" gradientUnits="userSpaceOnUse" x1="475.0104" y1="147.0109" x2="548.469" y2="147.0109">
	<stop  offset="0" style="stop-color:#FFFFFF"/>
	<stop  offset="0.303" style="stop-color:#001214"/>
	<stop  offset="0.7286" style="stop-color:#1D60AD"/>
</linearGradient>
<polygon style="opacity:0.4;fill:#D6D9ED;stroke:url(#SVGID_00000057860059995426299800000009581786125369470909_);stroke-miterlimit:10;" points="
	536.73,178.08 513.76,163.96 493.23,181.44 499.56,155.23 476.58,141.11 503.47,139.03 509.8,112.81 520.09,137.74 546.97,135.66 
	526.44,153.15 "/>
</svg>
